# AST/ASF file generated using VICON BodyLanguage
# -----------------------------------------------
:version 1.10
:name VICON
:units
  mass 1.0
  length 0.45
  angle deg
:documentation
   .ast/.asf automatically generated from VICON data using
   VICON BodyBuilder and BodyLanguage model FoxedUp or BRILLIANT.MOD
:root
   order TX TY TZ RX RY RZ
   axis XYZ
   position 0 0 0  
   orientation 0 0 0 
:bonedata
  begin
     id 1 
     name lhipjoint
     direction 0.716248 -0.617586 0.324924 
     length 2.63557 
     axis 0 0 0  XYZ
  end
  begin
     id 2 
     name lfemur
     direction 0.34202 -0.939693 0  
     length 7.01235  
     axis 0 0 20  XYZ
    dof rx ry rz
    limits (-160.0 20.0)
           (-70.0 70.0)
           (-60.0 70.0)
  end
  begin
     id 3 
     name ltibia
     direction 0.34202 -0.939693 0   
     length 8.14348   
     axis 0 0 20   XYZ
    dof rx
    limits (-10.0 170.0)
  end
  begin
     id 4 
     name lfoot
     direction 0.0982064 -0.26982 0.95789   
     length 1.99077   
     axis -90 7.62852e-016 20   XYZ
    dof rx rz
    limits (-45.0 90.0)
           (-70.0 20.0)
  end
  begin
     id 5 
     name ltoes
     direction 1.53511e-011 -4.21891e-011 1   
     length 0.99735   
     axis -90 7.62852e-016 20   XYZ
    dof rx
    limits (-90.0 20.0)
  end
  begin
     id 6 
     name rhipjoint
     direction -0.687828 -0.642391 0.337975   
     length 2.5338  
     axis 0 0 0  XYZ 
  end
  begin
     id 7 
     name rfemur
     direction -0.34202 -0.939693 0   
     length 6.90199   
     axis 0 0 -20   XYZ
    dof rx ry rz
    limits (-160.0 20.0)
           (-70.0 70.0)
           (-70.0 60.0)
  end
  begin
     id 8 
     name rtibia
     direction -0.34202 -0.939693 0   
     length 8.07725   
     axis 0 0 -20   XYZ
    dof rx
    limits (-10.0 170.0)
 end
 begin
     id 9 
     name rfoot
     direction -0.0912384 -0.250675 0.963762   
     length 2.11621  
     axis -90 -7.62852e-016 -20   XYZ
    dof rx rz
    limits (-45.0 90.0)
           (-20.0 70.0)
  end
  begin
     id 10 
     name rtoes
     direction -1.5359e-011 -4.21894e-011 1   
     length 1.06031   
     axis -90 -7.62852e-016 -20   XYZ
    dof rx
    limits (-90.0 20.0)
  end
  begin
     id 11 
     name lowerback
     direction -0.0403572 0.987953 -0.149396   
     length 2.05637   
     axis 0 0 0   XYZ
    dof rx ry rz
    limits (-20.0 45.0)
           (-30.0 30.0)
           (-30.0 30.0)
  end
  begin
     id 12 
     name upperback
     direction -0.00512151 0.997598 0.0690792   
     length 2.01086   
     axis 0 0 0   XYZ
    dof rx ry rz
    limits (-20.0 45.0)
           (-30.0 30.0)
           (-30.0 30.0)
  end
  begin
     id 13 
     name thorax
     direction 0.0136133 0.989392 0.14463   
     length 2.09035   
     axis 0 0 0   XYZ
    dof rx ry rz
    limits (-20.0 45.0)
           (-30.0 30.0)
           (-30.0 30.0)
  end
  begin
     id 14 
     name lowerneck
     direction 0.0250714 0.992811 0.11704   
     length 1.70806   
     axis 0 0 0   XYZ
    dof rx ry rz
    limits (-20.0 45.0)
           (-30.0 30.0)
           (-30.0 30.0)
  end
  begin
     id 15 
     name upperneck
     direction -0.0519205 0.998394 -0.0226787   
     length 1.6689   
     axis 0 0 0   XYZ
    dof rx ry rz
    limits (-20.0 45.0)
           (-30.0 30.0)
           (-30.0 30.0)
  end
  begin
     id 16
     name head
     direction -0.0201693 0.999547 -0.0223192  
     length 1.83412  
     axis 0 0 0   XYZ
    dof rx ry rz
    limits (-20.0 45.0)
           (-30.0 30.0)
           (-30.0 30.0)
  end
  begin
     id 17 
     name lclavicle
     direction 0.89585 0.444077 -0.0157448  
     length 3.39587  
     axis 0 0 0   XYZ
    dof ry rz
    limits (-20.0 10.0)
           (0.0 20.0)
  end
  begin
     id 18 
     name lhumerus
     direction 1 -4.48956e-011 1.99132e-028   
     length 5.79199   
     axis 180 -30 -90   XYZ
    dof rx ry rz
    limits (-60.0 90.0)
           (-90.0 90.0)
           (-90.0 90.0)
  end
  begin
     id 19
     name lradius
     direction 1 -4.48974e-011 8.72912e-028   
     length 3.49908   
     axis 180 -30 -90   XYZ
    dof rx
    limits (-10.0 170.0)
  end
  begin
     id 20
     name lwrist
     direction 1 -4.48994e-011 4.76442e-027   
     length 1.74954   
     axis -3.27502e-015 90 90   XYZ
    dof ry
    limits (-180.0 0.0)
 end
  begin
     id 21 
     name lhand
     direction 1 -4.48945e-011 9.531e-027   
     length 0.593861   
     axis -6.08098e-015 90 90   XYZ
    dof rx rz
    limits (-90.0 90.0)
           (-45.0 45.0)
  end
  begin
     id 22 
     name lfingers
     direction 1 -4.48945e-011 1.9062e-026   
     length 0.478786   
     axis -1.21619e-014 90 90   XYZ
    dof rx
    limits (0.0 90.0)
  end
  begin
     id 23
     name lthumb
     direction 0.707107 -6.34904e-011 0.707107   
     length 0.687444   
     axis -90 45 -9.86923e-015   XYZ
    dof rx rz
    limits (-45.0 45.0)
           (-45.0 45.0)
  end
  begin
     id 24 
     name rclavicle
     direction -0.940466 0.338394 0.0318182   
     length 3.51226  
     axis 0 0 0   XYZ 
    dof ry rz
    limits (-10.0 20.0)
           (-20.0 0.0)
  end
  begin
     id 25 
     name rhumerus
     direction -1 -4.48976e-011 2.0905e-027  
     length 5.73799   
     axis 180 30 90   XYZ
    dof rx ry rz
    limits (-90.0 60.0)
           (-90.0 90.0)
           (-90.0 90.0)
  end
  begin
     id 26 
     name rradius
     direction -1 -4.48968e-011 -9.39692e-029   
     length 3.57916   
     axis 180 30 90   XYZ
    dof rx
    limits (-10.0 170.0)
  end
  begin
     id 27 
     name rwrist
     direction -1 -4.48959e-011 4.7652e-027   
     length 1.78958   
     axis -3.27502e-015 -90 -90   XYZ
    dof ry
    limits (-180.0 0.0)
  end
  begin
     id 28
     name rhand
     direction -1 -4.49042e-011 9.5267e-027   
     length 0.615577   
     axis -6.08098e-015 -90 -90   XYZ
    dof rx rz
    limits (-90.0 90.0)
           (-45.0 45.0)
  end
  begin
     id 29
     name rfingers
     direction -1 -4.48935e-011 1.90629e-026   
     length 0.496294   
     axis -1.21619e-014 -90 -90   XYZ
    dof rx
    limits (0.0 90.0)
  end
  begin
     id 30
     name rthumb
     direction -0.707107 -6.34977e-011 0.707107   
     length 0.712582   
     axis -90 -45 9.86923e-015   XYZ
    dof rx rz
    limits (-45.0 45.0)
           (-45.0 45.0)
  end
:hierarchy
  begin
    root lhipjoint rhipjoint lowerback
    lhipjoint lfemur
    lfemur ltibia
    ltibia lfoot
    lfoot ltoes
    rhipjoint rfemur
    rfemur rtibia
    rtibia rfoot
    rfoot rtoes
    lowerback upperback
    upperback thorax
    thorax lowerneck lclavicle rclavicle
    lowerneck upperneck
    upperneck head
    lclavicle lhumerus
    lhumerus lradius
    lradius lwrist
    lwrist lhand lthumb
    lhand lfingers
    rclavicle rhumerus
    rhumerus rradius
    rradius rwrist
    rwrist rhand rthumb
    rhand rfingers
  end

#!OML:ASF H:\Terrain\Patient Classification 1\PaulMetrics\March17Take5\PaulMetrics.ASF
:FULLY-SPECIFIED
:DEGREES
236
root 6.76476 17.5593 9.86787 3.24759 -0.0604852 0.346988
lowerback 1.6748 -0.137923 -3.54655
upperback -2.87883 -0.294 0.530651
thorax -3.88906 -0.0321949 2.55117
lowerneck -3.71364 9.04002 8.49036
upperneck 11.0378 12.9151 -11.1119
head 5.19824 6.14093 -3.98118
rclavicle 1.20591e-015 -8.64713e-015
rhumerus -49.3279 8.59114 -88.0462
rradius 37.4067
rwrist -6.19106
rhand -13.8104 -31.6283
rfingers 7.12502
rthumb 12.3119 -61.2459
lclavicle 1.20591e-015 -8.64713e-015
lhumerus -40.9829 -12.4126 85.3273
lradius 45.7544
lwrist 20.0109
lhand -11.8592 -21.7416
lfingers 7.12502
lthumb 14.1926 7.75352
rfemur -27.4729 4.7875 21.8219
rtibia 36.1227
rfoot -11.4465 -6.15433
rtoes 1.63584
lfemur -9.84721 -0.802035 -18.6337
ltibia 60.4416
lfoot 3.46479 3.99626
ltoes -11.0054
237
root 6.74737 17.5444 10.0054 3.08044 -0.201362 0.652915
lowerback 1.66176 -0.0631929 -3.77963
upperback -2.74699 -0.201654 0.473438
thorax -3.75164 0.015078 2.61789
lowerneck -3.83146 9.06754 8.5183
upperneck 11.3839 12.984 -11.1558
head 5.33654 6.16222 -3.98315
rclavicle -6.69539e-016 -7.00095e-015
rhumerus -48.781 8.62625 -87.5688
rradius 37.6161
rwrist -6.2165
rhand -13.709 -31.4193
rfingers 7.12502
rthumb 12.4097 -61.0309
lclavicle -6.69539e-016 -7.00095e-015
lhumerus -40.9014 -12.0136 85.4434
lradius 44.7804
lwrist 19.7206
lhand -11.2606 -21.0471
lfingers 7.12502
lthumb 14.7694 8.40671
rfemur -26.4752 4.19791 21.8574
rtibia 35.9582
rfoot -11.3587 -6.2049
rtoes -4.78838
lfemur -10.9187 -0.524186 -19.2196
ltibia 62.0078
lfoot 2.11492 4.61754
ltoes -10.0577
238
root 6.72786 17.5123 10.1083 3.12477 -0.341417 0.765093
lowerback 1.93547 0.0125638 -3.8636
upperback -2.82845 -0.11751 0.445807
thorax -3.99811 0.0652312 2.63348
lowerneck -3.70868 9.10045 8.6753
upperneck 11.5598 13.0525 -11.2274
head 5.39196 6.19923 -4.02709
rclavicle -9.64339e-015 -5.06901e-015
rhumerus -48.4539 8.64908 -87.2062
rradius 37.937
rwrist -6.19126
rhand -13.6927 -31.3872
rfingers 7.12502
rthumb 12.4254 -60.9978
lclavicle -9.64339e-015 -5.06901e-015
lhumerus -40.9773 -11.6539 85.4862
lradius 43.8802
lwrist 19.4238
lhand -10.3606 -20.4299
lfingers 7.12502
lthumb 15.6363 8.95815
rfemur -25.7767 3.73228 22.1729
rtibia 35.8361
rfoot -11.296 -6.77215
rtoes -15.307
lfemur -12.5364 -0.313583 -19.5843
ltibia 63.6128
lfoot 1.0288 5.02426
ltoes -12.1891
239
root 6.69844 17.5189 10.22 3.20738 -0.407711 0.752243
lowerback 2.13115 0.0818771 -3.8805
upperback -2.86172 -0.0346502 0.442727
thorax -4.15015 0.110553 2.63583
lowerneck -4.1753 9.3439 8.23656
upperneck 12.2238 13.3559 -10.5
head 5.62918 6.33775 -3.67476
rclavicle -1.59086e-015 -6.60959e-015
rhumerus -48.1985 8.91254 -87.0509
rradius 38.4437
rwrist -6.37126
rhand -13.9308 -31.7499
rfingers 7.12502
rthumb 12.1959 -61.3744
lclavicle -1.59086e-015 -6.60959e-015
lhumerus -41.097 -11.638 85.6542
lradius 42.9405
lwrist 18.607
lhand -10.4628 -20.9374
lfingers 7.12502
lthumb 15.538 8.45838
rfemur -25.3212 3.67863 22.4683
rtibia 35.8298
rfoot -11.5629 -7.34489
rtoes -20.126
lfemur -14.1499 -0.29141 -19.7763
ltibia 64.8807
lfoot 0.444702 5.38164
ltoes -12.7948
240
root 6.66942 17.5479 10.3648 3.17147 -0.420659 1.01035
lowerback 1.98512 0.11144 -4.1701
upperback -2.75496 -0.000763597 0.37127
thorax -3.9601 0.129359 2.72224
lowerneck -4.73368 9.57475 7.74858
upperneck 12.8284 13.6379 -9.79785
head 5.85757 6.46198 -3.32003
rclavicle -2.30602e-015 -4.09993e-016
rhumerus -47.8467 9.09225 -86.8288
rradius 38.9074
rwrist -6.44686
rhand -14.2637 -32.16
rfingers 7.12502
rthumb 11.8748 -61.8033
lclavicle -2.30602e-015 -4.09993e-016
lhumerus -41.2944 -11.5283 85.8356
lradius 42.0869
lwrist 17.7789
lhand -10.8003 -21.4631
lfingers 7.12502
lthumb 15.2129 7.9576
rfemur -24.6008 3.35295 22.3817
rtibia 35.6474
rfoot -11.984 -7.29251
rtoes -21.3281
lfemur -15.235 -0.364103 -20.3035
ltibia 65.735
lfoot -0.177187 5.63468
ltoes -13.9104
241
root 6.64838 17.5696 10.5035 3.14053 -0.548172 1.27228
lowerback 1.95586 0.196302 -4.40903
upperback -2.6838 0.103336 0.286518
thorax -3.87914 0.183874 2.76305
lowerneck -4.92109 9.63378 7.63035
upperneck 12.7824 13.7015 -9.70695
head 5.86657 6.48753 -3.25892
rclavicle 3.72896e-015 -1.00883e-014
rhumerus -47.196 9.01761 -86.4426
rradius 38.9554
rwrist -6.4915
rhand -14.4721 -31.9303
rfingers 7.12502
rthumb 11.6739 -61.585
lclavicle 3.72896e-015 -1.00883e-014
lhumerus -41.3365 -11.2277 85.8741
lradius 41.2469
lwrist 17.337
lhand -10.3622 -21.0518
lfingers 7.12502
lthumb 15.6349 8.33643
rfemur -23.94 3.06869 22.2127
rtibia 35.3043
rfoot -12.3185 -6.8162
rtoes -21.0705
lfemur -16.2292 -0.348617 -20.87
ltibia 66.1629
lfoot -0.913079 5.76798
ltoes -16.4057
242
root 6.62177 17.5916 10.6022 3.15869 -0.827066 0.805067
lowerback 2.5489 0.377741 -3.98545
upperback -2.79919 0.337631 0.402539
thorax -4.35121 0.301453 2.63048
lowerneck -5.24073 9.66606 7.21402
upperneck 12.9743 13.7244 -9.29479
head 5.92494 6.49015 -3.04782
rclavicle -5.3206e-015 -2.47238e-015
rhumerus -46.7515 9.04981 -86.0748
rradius 39.2677
rwrist -6.66088
rhand -14.4861 -31.5899
rfingers 7.12502
rthumb 11.6604 -61.2454
lclavicle -5.3206e-015 -2.47238e-015
lhumerus -41.3985 -11.048 85.9149
lradius 40.3706
lwrist 17.084
lhand -9.54308 -20.411
lfingers 7.12502
lthumb 16.4236 8.9137
rfemur -23.6382 3.86115 22.7289
rtibia 34.9343
rfoot -12.4791 -6.76981
rtoes -16.3229
lfemur -17.7556 -0.0284631 -20.4801
ltibia 66.6255
lfoot -1.51617 5.80844
ltoes -16.2979
243
root 6.61843 17.6353 10.7893 2.85762 -1.00563 0.870288
lowerback 2.13817 0.458166 -3.63664
upperback -2.56883 0.475338 0.228182
thorax -3.88203 0.344131 2.24828
lowerneck -3.72395 9.30137 8.38696
upperneck 11.8247 13.2841 -10.5759
head 5.43676 6.32896 -3.7553
rclavicle 8.14474e-015 7.90169e-015
rhumerus -46.6465 9.23265 -85.9546
rradius 39.953
rwrist -6.90482
rhand -14.7054 -31.596
rfingers 7.12502
rthumb 11.4488 -61.2634
lclavicle 8.14474e-015 7.90169e-015
lhumerus -41.6929 -10.9124 85.8632
lradius 39.7521
lwrist 16.6853
lhand -8.95422 -20.0698
lfingers 7.12502
lthumb 16.9905 9.20714
rfemur -22.4329 3.58708 22.634
rtibia 34.6234
rfoot -13.1753 -6.18944
rtoes -13.0924
lfemur -18.016 0.0959002 -20.9513
ltibia 66.6667
lfoot -2.69795 6.02017
ltoes -16.2393
244
root 6.60046 17.6354 10.9245 2.95344 -1.27628 0.613082
lowerback 1.88848 0.558637 -3.28713
upperback -2.53545 0.632574 0.210038
thorax -3.71074 0.408986 2.02683
lowerneck -4.19173 9.42321 8.34106
upperneck 12.3763 13.4547 -10.4006
head 5.6894 6.39219 -3.64753
rclavicle 4.75375e-015 -6.16232e-015
rhumerus -46.3169 9.25685 -85.7956
rradius 40.3108
rwrist -7.0154
rhand -15.7945 -31.6766
rfingers 7.12502
rthumb 10.3984 -61.3994
lclavicle 4.75375e-015 -6.16232e-015
lhumerus -42.0369 -10.655 85.7176
lradius 39.4247
lwrist 16.0251
lhand -8.57978 -19.9511
lfingers 7.12502
lthumb 17.3509 9.29444
rfemur -21.7303 3.49494 23.1048
rtibia 34.3104
rfoot -13.5178 -6.38052
rtoes -15.0931
lfemur -19.2134 0.424723 -20.9233
ltibia 67.0736
lfoot -3.73728 5.88586
ltoes -15.7592
245
root 6.57367 17.624 11.0322 3.32562 -1.52512 0.621027
lowerback 1.68134 0.677458 -3.38299
upperback -2.62561 0.793352 0.187217
thorax -3.69811 0.492384 2.0502
lowerneck -4.18316 9.40293 8.23062
upperneck 12.3511 13.4333 -10.3936
head 5.66994 6.37803 -3.63145
rclavicle -9.68299e-015 -2.52457e-014
rhumerus -45.8106 9.07786 -85.4134
rradius 40.6997
rwrist -6.99889
rhand -16.8685 -32.0639
rfingers 7.12502
rthumb 9.36224 -61.836
lclavicle -9.68299e-015 -2.52457e-014
lhumerus -42.328 -10.4025 85.6151
lradius 39.1112
lwrist 15.5086
lhand -8.04831 -19.7527
lfingers 7.12502
lthumb 17.8624 9.44698
rfemur -21.5448 3.69503 23.3197
rtibia 34.1221
rfoot -13.8861 -6.75839
rtoes -15.9662
lfemur -20.8331 0.712465 -21.1578
ltibia 67.1606
lfoot -4.59 5.95763
ltoes -14.1268
246
root 6.54078 17.6345 11.1276 3.56739 -1.77333 0.310464
lowerback 1.88592 0.796481 -3.19876
upperback -2.7214 0.952258 0.254552
thorax -3.92076 0.572048 2.0049
lowerneck -4.20048 9.42479 8.20153
upperneck 12.3058 13.4476 -10.311
head 5.65256 6.38863 -3.59975
rclavicle -8.98569e-015 -7.85199e-015
rhumerus -45.3297 9.19312 -85.1885
rradius 41.2844
rwrist -7.36876
rhand -17.3397 -32.1922
rfingers 7.12502
rthumb 8.90756 -61.9842
lclavicle -8.98569e-015 -7.85199e-015
lhumerus -42.6204 -10.0554 85.4768
lradius 38.7405
lwrist 15.0766
lhand -7.55834 -19.5197
lfingers 7.12502
lthumb 18.3338 9.63629
rfemur -21.5506 4.63056 23.7286
rtibia 34.0615
rfoot -14.1825 -7.09901
rtoes -13.0738
lfemur -22.402 1.12854 -20.9901
ltibia 67.3029
lfoot -5.59788 5.99663
ltoes -14.6642
247
root 6.52908 17.6679 11.2938 3.24878 -2.11078 0.891731
lowerback 1.78748 0.884902 -3.62495
upperback -2.52261 1.05394 0.0189881
thorax -3.66944 0.624359 1.9983
lowerneck -4.61249 9.60211 8.16228
upperneck 12.7075 13.6703 -10.0551
head 5.84918 6.48725 -3.46662
rclavicle -1.33465e-014 -1.59028e-014
rhumerus -44.988 9.29849 -85.0226
rradius 41.9332
rwrist -7.60747
rhand -18.0368 -31.8193
rfingers 7.12502
rthumb 8.23485 -61.6388
lclavicle -1.33465e-014 -1.59028e-014
lhumerus -43.0625 -9.87278 85.4081
lradius 38.4175
lwrist 15.1307
lhand -7.41559 -19.3936
lfingers 7.12502
lthumb 18.4711 9.7494
rfemur -20.6698 4.71957 23.0813
rtibia 34.0379
rfoot -14.818 -6.69074
rtoes -11.7027
lfemur -22.6724 1.13328 -21.9635
ltibia 66.542
lfoot -6.68017 6.30963
ltoes -13.7096
